<?xml version="1.0" encoding="utf-8"?>
<svg xmlns="http://www.w3.org/2000/svg" viewBox="0 0 80 80" width="480" height="480">
  <path d="M38 8C22.464844 8 10 20.507813 10 35.09375C10 43.320313 13.417969 48.582031 16.691406 53.066406C19.964844 57.554688 23 61.238281 23 66.734375L23 73L25 73L25 66.734375C25 60.5 21.535156 56.3125 18.308594 51.890625C15.082031 47.464844 12 42.777344 12 35.09375C12 23.242188 20.96875 12.789063 33 10.480469L33 31.355469C30.015625 33.085938 28 36.3125 28 40C28 45.511719 32.488281 50 38 50C40.398438 50 42.597656 49.148438 44.324219 47.734375L51.566406 54.984375C51.214844 55.578125 51 56.261719 51 57C51 59.199219 52.800781 61 55 61C57.199219 61 59 59.199219 59 57C59 54.800781 57.199219 53 55 53C54.261719 53 53.578125 53.214844 52.984375 53.566406L45.734375 46.324219C47.148438 44.597656 48 42.398438 48 40C48 36.3125 45.984375 33.085938 43 31.355469L43 10.382813C56.230469 12.453125 63 22.714844 63 32.890625L63 33.164063L69.878906 44.847656C70.140625 45.289063 69.984375 45.820313 69.53125 46.050781L63 49.390625L63 58C63 61.878906 59.878906 65 56 65L49 65C48.449219 65 48 65.449219 48 66C48 66.550781 48.449219 67 49 67L49 73L51 73L51 67L56 67C60.957031 67 65 62.957031 65 58L65 50.609375L70.4375 47.832031C71.894531 47.089844 72.429688 45.242188 71.605469 43.832031L64.96875 32.566406C64.804688 20.277344 55.316406 8 38 8 Z M 38 10C39.03125 10 40.03125 10.046875 41 10.132813L41 30.464844C40.050781 30.164063 39.046875 30 38 30C36.953125 30 35.949219 30.164063 35 30.464844L35 10.175781C35.984375 10.0625 36.984375 10 38 10 Z M 38 11C37.449219 11 37 11.449219 37 12C37 12.550781 37.449219 13 38 13C38.550781 13 39 12.550781 39 12C39 11.449219 38.550781 11 38 11 Z M 38 15C37.449219 15 37 15.449219 37 16C37 16.550781 37.449219 17 38 17C38.550781 17 39 16.550781 39 16C39 15.449219 38.550781 15 38 15 Z M 38 19C37.449219 19 37 19.449219 37 20C37 20.550781 37.449219 21 38 21C38.550781 21 39 20.550781 39 20C39 19.449219 38.550781 19 38 19 Z M 38 23C37.449219 23 37 23.449219 37 24C37 24.550781 37.449219 25 38 25C38.550781 25 39 24.550781 39 24C39 23.449219 38.550781 23 38 23 Z M 38 27C37.449219 27 37 27.449219 37 28C37 28.550781 37.449219 29 38 29C38.550781 29 39 28.550781 39 28C39 27.449219 38.550781 27 38 27 Z M 38 32C42.429688 32 46 35.570313 46 40C46 44.429688 42.429688 48 38 48C33.570313 48 30 44.429688 30 40C30 35.570313 33.570313 32 38 32 Z M 38 35C37.449219 35 37 35.449219 37 36C37 36.550781 37.449219 37 38 37C38.550781 37 39 36.550781 39 36C39 35.449219 38.550781 35 38 35 Z M 35.1875 36.171875C34.914063 36.167969 34.65625 36.273438 34.464844 36.464844C34.074219 36.855469 34.074219 37.488281 34.464844 37.878906C34.855469 38.269531 35.488281 38.269531 35.878906 37.878906C36.269531 37.488281 36.269531 36.855469 35.878906 36.464844C35.695313 36.28125 35.445313 36.175781 35.1875 36.171875 Z M 40.84375 36.171875C40.570313 36.167969 40.3125 36.273438 40.121094 36.464844C39.730469 36.855469 39.730469 37.488281 40.121094 37.878906C40.511719 38.269531 41.144531 38.269531 41.535156 37.878906C41.925781 37.488281 41.925781 36.855469 41.535156 36.464844C41.351563 36.28125 41.101563 36.175781 40.84375 36.171875 Z M 34 39C33.449219 39 33 39.449219 33 40C33 40.550781 33.449219 41 34 41C34.550781 41 35 40.550781 35 40C35 39.449219 34.550781 39 34 39 Z M 42 39C41.449219 39 41 39.449219 41 40C41 40.550781 41.449219 41 42 41C42.550781 41 43 40.550781 43 40C43 39.449219 42.550781 39 42 39 Z M 35.1875 41.828125C34.914063 41.824219 34.652344 41.929688 34.464844 42.121094C34.074219 42.511719 34.074219 43.144531 34.464844 43.535156C34.851563 43.925781 35.488281 43.925781 35.875 43.535156C36.265625 43.144531 36.265625 42.511719 35.875 42.121094C35.691406 41.9375 35.445313 41.832031 35.1875 41.828125 Z M 40.84375 41.828125C40.570313 41.824219 40.308594 41.929688 40.121094 42.121094C39.730469 42.511719 39.730469 43.144531 40.121094 43.535156C40.507813 43.925781 41.144531 43.925781 41.53125 43.535156C41.921875 43.144531 41.921875 42.511719 41.53125 42.121094C41.347656 41.9375 41.101563 41.832031 40.84375 41.828125 Z M 38 43C37.449219 43 37 43.449219 37 44C37 44.550781 37.449219 45 38 45C38.550781 45 39 44.550781 39 44C39 43.449219 38.550781 43 38 43 Z M 55 55C56.117188 55 57 55.882813 57 57C57 58.117188 56.117188 59 55 59C53.882813 59 53 58.117188 53 57C53 55.882813 53.882813 55 55 55 Z M 38 61C37.449219 61 37 61.449219 37 62C37 62.550781 37.449219 63 38 63C38.550781 63 39 62.550781 39 62C39 61.449219 38.550781 61 38 61 Z M 41 64C40.449219 64 40 64.449219 40 65C40 65.550781 40.449219 66 41 66C41.550781 66 42 65.550781 42 65C42 64.449219 41.550781 64 41 64 Z M 45 65C44.449219 65 44 65.449219 44 66C44 66.550781 44.449219 67 45 67C45.550781 67 46 66.550781 46 66C46 65.449219 45.550781 65 45 65Z" fill="#FFFFFF" />
</svg>