<?xml version="1.0" encoding="utf-8"?>
<svg xmlns="http://www.w3.org/2000/svg" viewBox="0 0 24 24" width="480" height="480">
  <path d="M20.820313 9.613281L20.765625 9.535156L20.8125 9.382813L20.941406 9.40625L21.058594 9.472656L21.074219 9.460938L21.035156 9.566406L20.929688 9.617188 Z M 21.484375 10.320313L21.4375 10.152344L20.417969 9.492188L20.171875 9.476563L19.949219 9.71875L19.839844 10.019531L19.929688 10.183594 Z M 5.824219 9.523438L5.707031 9.945313L6.089844 9.511719L6.121094 9.378906L5.957031 9.3125 Z M 6.054688 8.839844L6.054688 8.863281L5.402344 9.171875L6.226563 9.007813 Z M 6.550781 9.660156L6.632813 9.597656L6.703125 9.433594L6.691406 9.453125L6.746094 9.261719L6.59375 9.238281L6.472656 9.269531L6.394531 9.351563L6.355469 9.492188L6.460938 9.625 Z M 19.613281 6.714844L19.496094 6.652344L18.972656 6.617188L18.753906 6.433594L19.019531 5.453125L17.71875 7.558594L17.375 7.8125L18.011719 8.054688 Z M 20.839844 12.554688L22.136719 14.609375L21.089844 12.664063 Z M 24 12C24 18.628906 18.628906 24 12 24C5.375 24 0 18.628906 0 12C0 5.371094 5.375 0 12 0C18.628906 0 24 5.371094 24 12 Z M 15.269531 7.152344L15.273438 8.175781L15.480469 8.695313L15.972656 8.582031L16 8.246094 Z M 16 5.324219L15.824219 5.253906L15.453125 5.335938L15.097656 5.257813L15.082031 5.699219L15.121094 5.796875L15.601563 5.84375L15.90625 5.601563 Z M 8.886719 2.144531L9.484375 2.121094L10.652344 1.359375C10.277344 1.40625 9.914063 1.46875 9.554688 1.554688L9.34375 1.835938 Z M 8.140625 2.492188L8.535156 2.808594L9.039063 2.875L9.355469 2.574219L9.164063 2.546875L8.386719 2.101563L8.160156 2.058594 Z M 7.109375 2.445313L7.152344 2.503906L7.375 2.488281L7.613281 2.386719L7.742188 2.226563L7.695313 2.160156C7.496094 2.246094 7.304688 2.347656 7.109375 2.445313 Z M 6.535156 3.660156L6.832031 3.703125L7.042969 3.457031L7.101563 3.167969L6.941406 3.085938L6.539063 3.53125 Z M 4.386719 4.484375L4.914063 4.785156L5.691406 4.425781L6.296875 3.777344L6.3125 3.191406L5.789063 3.292969L5.734375 3.273438C5.367188 3.535156 5.019531 3.824219 4.6875 4.132813L4.742188 4.191406L4.425781 4.410156 Z M 1.433594 12.964844L1.199219 12.566406C1.199219 12.601563 1.203125 12.636719 1.207031 12.671875L1.425781 13.160156 Z M 12.089844 17.625L11.546875 17.222656L9.996094 16.761719L9.089844 15.574219L7.96875 15.148438L5.339844 15.058594L4.542969 13.714844L4.332031 13.6875L3.679688 14.003906L3.441406 13.75L3.398438 13.382813L3.476563 13.078125L3.890625 12.519531L4.378906 12.246094L5.601563 12.472656L5.78125 12.988281L6.15625 13.074219L6.152344 12.292969L7.175781 10.804688L9.433594 9.542969L9.105469 9.503906L8.523438 9.070313L10.007813 8.648438L10.0625 8.78125L10.039063 8.90625L9.949219 9.027344L9.785156 9.140625L9.902344 9.300781L10.265625 9.316406L10.558594 9.207031L9.585938 6.855469L9.449219 6.871094L8.261719 6.300781L7.996094 6.558594L7.304688 8.328125L6.972656 8.027344L6.179688 7.664063L5.691406 7.109375L6.265625 6.242188L8.023438 4.882813L8.285156 4.148438L9.09375 4.660156L9.222656 4.941406L8.371094 5.636719L9.21875 6.167969L9.402344 6.070313L9.492188 6.074219L9.851563 5.507813L9.769531 5.414063L10.265625 4.871094L9.886719 4.214844L8.902344 3.378906L9.421875 3.285156L9.394531 3.148438L9.109375 3.085938L8.289063 3.546875L8.554688 3.113281L8.003906 3.289063L7.90625 4.636719L7.46875 4.933594L7.160156 4.644531L7.964844 3.140625L7.902344 3.078125L7.828125 3.046875L7.742188 3.046875L7.648438 3.082031L6.367188 4.867188L6.394531 4.757813L6.523438 4.511719L6.476563 4.410156L6.257813 4.539063L4.414063 4.917969L4.078125 4.734375C2.265625 6.683594 1.15625 9.300781 1.175781 12.171875C1.175781 12.207031 1.183594 12.242188 1.183594 12.277344L1.1875 12.261719L1.453125 12.359375L2.429688 14.015625L5.363281 15.308594L5.765625 15.753906L5.773438 16.34375L5.40625 17.21875L5.386719 17.695313L6.660156 20.15625L6.699219 21.523438C7.382813 21.910156 8.113281 22.230469 8.882813 22.464844L10.214844 20.757813L11.398438 19.886719 Z M 7.65625 5.597656L7.554688 5.453125L7.457031 5.429688L7.089844 5.894531L7.152344 5.964844L7.605469 5.964844L7.746094 5.875 Z M 12.160156 6.566406L15.210938 3.929688L15.925781 2.011719C14.683594 1.527344 13.335938 1.257813 11.921875 1.269531C11.734375 1.269531 11.554688 1.289063 11.367188 1.300781L11.226563 1.378906L10.941406 1.789063L10.882813 2.066406L10.996094 2.269531L11.777344 2.371094L12.007813 3.886719L11.617188 4.800781L11.523438 5.46875L11.769531 6.179688 Z M 22.378906 14.894531L22.460938 14.84375C22.699219 13.941406 22.832031 12.992188 22.824219 12.015625C22.820313 11.316406 22.742188 10.640625 22.613281 9.980469L22.554688 9.863281L22.578125 9.785156C22.242188 8.234375 21.566406 6.816406 20.644531 5.597656L20.578125 5.625L20.183594 5.222656L20.328125 5.179688C19.988281 4.773438 19.617188 4.398438 19.222656 4.046875L18.890625 4.023438L18.289063 4.28125L16.707031 6.429688L16.78125 6.707031L17.523438 7.277344L17.523438 7.570313L15.4375 9.109375L15.453125 9.308594L15.621094 9.59375L15.679688 9.847656L14.773438 10.207031L14.703125 10.671875L14.773438 11.242188L13.390625 13.960938L13.328125 15.164063L14.359375 15.773438L16.0625 15.769531L16.832031 15.988281L18.292969 20.890625C20.285156 19.464844 21.765625 17.378906 22.429688 14.957031 Z M 20.921875 11.175781L19.300781 10.738281L19.136719 10.539063L19.171875 11.011719L19.128906 11.046875L17.859375 9.722656L17.859375 9.730469L17.652344 9.78125L17.621094 9.730469L17.683594 9.988281L18.183594 10.351563L18.21875 10.621094L18.121094 10.785156L18.050781 10.835938L17.960938 10.871094L17.480469 10.121094L16.765625 10.125L15.269531 11.234375L17.230469 11.160156L18.117188 11.964844L18.542969 12.113281L20.894531 11.640625Z" fill="#FFFFFF" />
</svg>