<?xml version="1.0" encoding="utf-8"?>
<svg xmlns="http://www.w3.org/2000/svg" viewBox="0 0 50 50" width="500" height="500">
  <path d="M23.679688 2.0253906C23.011059 2.0057246 22.360268 2.2554409 21.828125 2.6503906C21.297029 3.0445634 20.845537 3.5714469 20.386719 4.21875C20.033337 4.7134839 19.667435 4.9104656 19.054688 5.0488281C18.441938 5.1871907 17.599609 5.1992188 16.599609 5.1992188C15.482149 5.1992188 14.657944 5.2994508 13.988281 5.5449219C13.428688 5.7500462 12.938583 6.1423484 12.693359 6.65625 A 1.0001 1.0001 0 0 0 12.650391 6.7617188 A 1.0001 1.0001 0 0 0 12.648438 6.7636719C12.621601 6.8319768 12.581752 6.8944544 12.564453 6.9667969C12.40345 7.6400822 12.645793 8.2146232 12.921875 8.6640625C13.197959 9.1135018 13.552662 9.493172 13.921875 9.8339844C14.347856 10.256046 15.226178 11.012542 16.066406 12.345703C16.838044 13.570035 17.401462 15.223478 17.353516 17.212891C14.034758 18.221467 10.872779 20.621259 8.4394531 23.705078C5.8033435 27.045894 4 31.139107 4 35.099609C4 39.987553 5.5223696 43.468443 8.9921875 45.443359C12.462005 47.418275 17.593311 48 25 48C32.406689 48 37.537996 47.418275 41.007812 45.443359C44.47763 43.468443 46 39.987553 46 35.099609C46 27.541787 40.07726 20.614311 33.255859 17.59375C33.731252 17.529572 34.226559 17.486094 34.748047 17.5C36.429831 17.54485 38.223715 18.049223 39.773438 19.6875 A 1.0002743 1.0002743 0 1 0 41.226562 18.3125C39.378575 16.358913 37.133853 15.686166 35.142578 15.568359C36.801412 14.849066 38.725081 14.617255 41.019531 15.876953 A 1.0001 1.0001 0 1 0 41.980469 14.123047C40.572493 13.350041 39.224165 13.04584 37.964844 13.039062C35.115052 13.023722 32.738043 14.523876 31.173828 15.587891C30.945598 11.944259 33.021626 9.0491392 33.28125 8.7246094L33.314453 8.6816406L33.34375 8.6367188C33.690592 8.0916818 34.246564 7.3100548 34.482422 6.3847656C34.600351 5.922121 34.654893 5.2978207 34.251953 4.7421875C33.849013 4.1865543 33.166667 4 32.5 4C31.25 4 30.132846 4.4129713 29.230469 4.5800781C28.328092 4.747185 27.857694 4.7444125 27.40625 4.2929688C26.102997 2.9396018 25.011736 2.0645685 23.679688 2.0253906 z M 23.621094 4.0253906C23.983837 4.0360596 24.788539 4.4557836 25.978516 5.6933594L25.986328 5.6992188L25.992188 5.7070312C27.040712 6.7555892 28.471127 6.752815 29.59375 6.5449219C30.449312 6.3864844 31.247137 6.1576817 31.912109 6.0566406C31.923141 6.1260958 31.930459 6.1305172 31.841797 6.2695312C31.750967 6.4119284 31.533569 6.6463102 31.205078 6.9238281C30.548097 7.478864 29.485043 8.2080216 28.328125 9.2597656L28.326172 9.2617188L28.324219 9.2636719C27.853105 9.6955263 27.286956 9.9651075 26.851562 10.019531C26.41617 10.073951 26.155746 10.004081 25.869141 9.6601562C25.357287 9.0162592 24.875527 8.5362059 24.335938 8.2089844C23.790413 7.8781646 23.144852 7.7313433 22.556641 7.8242188C21.38205 8.0096804 20.625181 8.8117315 19.716797 9.6699219C19.201433 10.153076 18.58533 10.28498 17.652344 9.890625C16.861558 9.5563754 15.897157 8.7311831 14.966797 7.3613281C15.316559 7.2761516 15.818367 7.1992187 16.599609 7.1992188C17.599609 7.1992188 18.558842 7.2116378 19.496094 7C20.433345 6.7883625 21.367053 6.2861255 22.013672 5.3808594L22.015625 5.3789062C22.405877 4.8279622 22.753627 4.4546597 23.021484 4.2558594C23.289342 4.0570591 23.439722 4.0200562 23.621094 4.0253906 z M 22.869141 9.8007812C22.993429 9.7811572 23.066227 9.7788662 23.298828 9.9199219C23.531429 10.060977 23.884685 10.37459 24.316406 10.919922L24.324219 10.929688L24.332031 10.939453C25.045426 11.795527 26.135002 12.124482 27.099609 12.003906C28.064217 11.88333 28.946895 11.404474 29.675781 10.736328C29.792648 10.630162 29.898369 10.556639 30.013672 10.457031C29.330818 12.098585 28.797584 14.275284 29.21875 16.769531C24.537336 19.04173 20.815758 17.797866 19.435547 17.158203C19.471621 15.140317 18.921249 13.421858 18.205078 12.0625C19.276022 12.158717 20.317728 11.847272 21.083984 11.128906L21.085938 11.128906L21.085938 11.126953C21.975659 10.286661 22.620563 9.8400304 22.869141 9.8007812 z M 30.208984 18.490234C37.135516 20.498237 44 27.835921 44 35.099609C44 39.611666 42.87276 42.079994 40.017578 43.705078C37.162396 45.330162 32.293311 46 25 46C17.706689 46 12.837604 45.330162 9.9824219 43.705078C7.1272398 42.079994 6 39.611666 6 35.099609C6 31.760112 7.5958778 28.004497 10.009766 24.945312C12.39587 21.921339 15.567554 19.613085 18.517578 18.90625C20.209974 19.654182 24.80382 21.149508 30.208984 18.490234 z M 18 24 A 1.0001 1.0001 0 1 0 18 26L22 26C23.314849 26 24.408769 26.832925 24.818359 28L18 28 A 1.0001 1.0001 0 1 0 18 30L24.818359 30C24.408769 31.167075 23.314849 32 22 32L18 32 A 1.0001 1.0001 0 0 0 17.248047 33.658203L24.248047 41.658203 A 1.0001 1.0001 0 1 0 25.751953 40.341797L20.203125 34L22 34C24.407153 34 26.431549 32.274577 26.898438 30L30 30 A 1.0001 1.0001 0 1 0 30 28L26.898438 28C26.746068 27.257692 26.41404 26.584378 25.970703 26L30 26 A 1.0001 1.0001 0 1 0 30 24L18 24 z" fill="#FFFFFF" />
</svg>