<?xml version="1.0" encoding="utf-8"?>
<svg xmlns="http://www.w3.org/2000/svg" viewBox="0 0 24 24" width="480" height="480">
  <path d="M12 4 A 3.5 3.5 0 1 0 12 11 A 3.5 3.5 0 1 0 12 4 z M 4.5 7 A 2.5 2.5 0 0 0 4.5 12 A 2.5 2.5 0 0 0 4.5 7 z M 19.5 7 A 2.5 2.5 0 0 0 19.5 12 A 2.5 2.5 0 0 0 19.5 7 z M 12 13C9.664 13 5 14.173 5 16.5L5 20L19 20L19 16.5C19 14.173 14.336 13 12 13 z M 3.8984375 14.052734C2.3174375 14.296734 0 15.389078 0 16.705078L0 20L3 20L3 16.5C3 15.539 3.3454375 14.732734 3.8984375 14.052734 z M 20.101562 14.052734C20.654563 14.732734 21 15.539 21 16.5L21 20L24 20L24 16.705078C24 15.389078 21.682562 14.296734 20.101562 14.052734 z" fill="#FFFFFF" />
</svg>